<?xml version="1.0" encoding="utf-8"?>
<!-- Generator: Adobe Illustrator 19.2.1, SVG Export Plug-In . SVG Version: 6.00 Build 0)  -->
<svg version="1.1" id="Layer_1" xmlns="http://www.w3.org/2000/svg" xmlns:xlink="http://www.w3.org/1999/xlink" x="0px" y="0px"
	 viewBox="0 0 73 73" style="enable-background:new 0 0 73 73;" xml:space="preserve">
<style type="text/css">
	.st0{fill:#FFFFFF;}
	.st1{fill:#FFFFFF;stroke:#FFFFFF;stroke-width:2;stroke-linecap:round;stroke-linejoin:round;stroke-miterlimit:10;}
	.st2{fill:#FFFFFF;stroke:#FFFFFF;stroke-width:2;stroke-linejoin:round;stroke-miterlimit:10;}
</style>
<path class="st0" d="M36.5,2C55.5,2,71,17.5,71,36.5S55.5,71,36.5,71S2,55.5,2,36.5S17.5,2,36.5,2 M36.5,0C16.3,0,0,16.3,0,36.5
	S16.3,73,36.5,73S73,56.7,73,36.5S56.7,0,36.5,0"/>
<line class="st1" x1="30.5" y1="41.8" x2="42.5" y2="41.8"/>
<line class="st1" x1="30.5" y1="46.1" x2="42.5" y2="46.1"/>
<line class="st1" x1="30.5" y1="37.5" x2="42.5" y2="37.5"/>
<polygon class="st2" points="48.5,47.2 48.5,51.5 24.5,51.5 24.5,21.5 38.2,21.5 38.2,31.7 48.5,31.7 48.5,35.6 "/>
<polygon class="st0" points="48.5,31.7 38.5,21.8 38.2,31.7 "/>
<polygon class="st1" points="48.5,31.7 38.5,21.8 38.2,31.7 "/>
</svg>
